<svg width="703" height="143" viewBox="0 0 703 143" fill="none" xmlns="http://www.w3.org/2000/svg">
<path d="M382.814 135.034C378.664 134.164 377.654 127.434 371.944 130.884C367.964 124.814 371.734 102.284 362.204 105.814C336.054 131.194 293.704 139.064 286.314 94.3741C286.754 40.5941 278.254 91.7441 269.714 108.344C260.734 122.844 245.324 111.074 235.964 104.374C230.834 110.114 232.784 120.464 226.814 126.204C204.784 121.784 205.484 93.5541 200.204 74.5841C197.524 59.5841 194.964 44.5041 193.414 29.3341C195.244 16.2841 214.684 27.0541 213.344 37.5241C215.274 55.8641 214.664 80.5741 222.794 95.4441C227.564 84.9241 212.514 55.2341 231.744 57.6941C244.204 67.7441 237.914 89.1741 249.174 100.974C264.394 107.104 263.944 50.5041 264.544 39.8441C281.164 33.4741 277.684 54.1241 281.914 62.6341C283.444 43.6541 373.054 9.55408 355.414 43.0141C353.734 44.9541 351.794 43.4441 349.814 42.2541C339.404 39.5941 328.684 48.7041 319.374 52.7241C308.094 57.3241 309.454 74.6841 305.554 85.0041C311.384 91.9641 343.224 65.9741 354.204 63.1441C361.704 62.4341 363.134 57.5541 364.404 50.9341C390.404 -12.4759 463.614 22.5941 410.494 92.7041C427.474 93.1941 504.494 70.3441 491.514 103.384C482.764 112.994 475.174 100.674 465.134 101.624C445.474 101.084 426.284 105.394 406.804 106.644C398.864 112.164 386.984 110.354 390.264 98.0741C397.084 84.7341 431.394 38.9041 407.394 32.6941C395.794 32.1141 387.174 37.1541 380.804 46.5641C392.814 71.1141 384.514 106.084 382.794 135.034H382.814ZM364.384 96.0541C362.004 89.3241 367.164 65.2341 356.684 71.0041C341.154 83.1441 317.514 90.3241 306.524 105.974C319.674 122.804 347.294 98.9341 364.384 96.0541Z" fill="white"/>
<path d="M680.794 73.9741C685.994 60.0441 675.824 -6.97593 697.704 0.594074C711.044 4.84407 693.534 92.7941 695.264 112.484C683.264 142.644 680.614 113.284 667.794 119.004C614.004 149.004 609.464 81.7041 597.684 101.424C587.484 115.034 552.884 102.954 550.014 113.364C551.154 121.094 540.314 114.934 539.244 110.654C530.304 98.4741 532.194 82.6641 529.844 68.2941C526.814 54.0941 530.334 36.5241 523.494 24.0641C519.774 21.0041 510.584 20.0941 512.724 13.6641C526.824 -4.06593 589.154 41.7741 601.484 56.6441C604.374 63.0641 609.074 55.8541 606.584 51.9241C602.074 47.4741 597.444 39.3641 605.524 36.0941C620.024 31.4241 665.154 13.1041 669.594 34.7841C684.064 43.8241 673.324 64.2141 680.784 73.9741H680.794ZM619.384 71.7541C626.364 74.2641 661.784 62.6841 652.064 77.9041C643.324 81.5841 632.344 78.5741 625.384 86.5541C622.734 89.7441 616.914 88.2141 617.914 93.4141C620.884 114.654 647.644 117.674 663.804 109.644C669.874 106.874 669.334 106.174 667.094 101.894C662.834 80.1741 662.044 58.5541 662.754 36.3341C642.754 42.3841 622.314 48.2841 619.384 71.7541ZM544.074 33.6141C542.804 44.1541 542.224 90.9241 548.844 96.7541C620.984 85.6841 591.734 54.9541 544.074 33.6141Z" fill="white"/>
<path d="M191.184 60.3341C181.934 41.9441 159.924 16.0041 139.774 30.7641C128.604 12.7241 86.524 39.0941 69.284 35.5341C74.324 -0.425922 20.384 18.9841 4.31401 32.0141C-4.60599 37.2741 2.43401 44.7141 6.47401 50.0441C8.75401 57.9141 10.214 66.0341 12.494 73.9041C13.464 77.2841 12.694 79.3041 10.164 81.3241C2.45401 90.3141 20.444 97.2741 17.914 107.554C21.694 116.624 21.524 128.334 24.664 136.374C37.184 145.014 53.734 144.234 65.044 133.794C72.454 127.074 79.474 119.914 86.954 113.264C92.094 110.434 97.894 82.7241 100.914 95.6941C101.594 109.544 105.054 140.344 125.204 131.944C120.294 120.094 119.014 107.434 119.344 94.1241C123.204 59.0541 97.134 43.5441 135.064 38.5941C140.274 63.0341 121.604 98.1641 145.254 116.014C175.904 139.214 214.324 89.1941 191.184 60.3341ZM26.064 55.3141C25.684 50.4641 17.834 42.2841 23.224 39.1141C31.654 37.1441 41.324 28.1541 49.784 32.3441C50.494 42.2441 38.824 50.9241 34.454 59.6341C29.764 68.5141 28.524 61.3441 26.064 55.3041V55.3141ZM80.804 83.6841C72.944 104.774 58.744 121.984 37.024 129.394C35.844 116.544 34.894 104.024 33.834 91.2241C26.244 80.5041 86.804 70.4741 80.794 83.6841H80.804ZM98.074 76.9041C86.764 59.0341 55.264 70.3441 58.274 61.2441C64.984 50.4741 81.274 55.4741 92.314 50.8041C97.984 56.8241 97.024 68.5041 98.064 76.9041H98.074ZM177.594 84.1041C177.684 95.9741 151.434 119.594 152.444 95.6441C149.084 78.3141 178.804 49.9441 148.734 46.2241C155.744 20.4541 181.324 73.4041 177.594 84.1141V84.1041Z" fill="white"/>
<path d="M502.704 101.964C506.954 86.8441 520.624 98.3541 523.544 107.894C525.904 128.894 503.604 114.614 502.704 101.964Z" fill="white"/>
</svg>
