<svg width="501" height="410" viewBox="0 0 501 410" fill="none" xmlns="http://www.w3.org/2000/svg">
<path fill-rule="evenodd" clip-rule="evenodd" d="M200.232 5.98436C213.031 -1.19446 228.684 -1.01366 241.314 6.45884L403.027 102.139C404.863 103.226 406.408 104.742 407.528 106.558L498.725 254.392C502.633 260.729 500.515 269.044 494.051 272.737L257.185 408.089C253.13 410.407 248.151 410.402 244.099 408.078L7.3033 272.211C1.85941 269.088 -0.623067 262.556 1.372 256.605L57.1851 90.128C58.2239 87.0296 60.3778 84.4282 63.228 82.8295L200.232 5.98436ZM232.933 20.624C225.355 16.1405 215.963 16.032 208.284 20.3393L102.783 79.5145C93.8291 84.5365 93.8113 97.418 102.751 102.465L248.116 184.525C250.746 186.01 253.814 186.561 256.779 185.985C307.554 176.106 350.158 146.587 375.458 123.372C381.666 117.676 380.259 107.792 373.009 103.502L232.933 20.624ZM407.7 138.186C403.157 130.82 392.854 129.743 386.475 135.591C361.018 158.926 319.581 187.877 269.542 200.036C263.393 201.53 258.877 206.922 258.877 213.25V365.477C258.877 375.587 269.799 381.925 278.576 376.909L471.106 266.892C477.571 263.198 479.689 254.884 475.78 248.547L407.7 138.186ZM222.698 376.823C231.476 381.859 242.418 375.522 242.418 365.402V207.896C242.418 203.147 239.86 198.765 235.724 196.43L84.115 110.845C76.9118 106.778 67.7873 110.283 65.1579 118.125L21.2661 249.044C19.271 254.995 21.7535 261.527 27.1974 264.65L222.698 376.823Z" fill="#EEEEEE"/>
<path d="M214.283 134.387C211.134 136.205 206.029 136.205 202.88 134.387L131.352 93.0906C128.203 91.2726 128.203 88.325 131.352 86.507L156.02 72.2645C161.905 68.8668 167.75 66.6146 173.554 65.508C179.331 64.3858 184.825 64.2221 190.035 65.017C195.218 65.7963 199.862 67.3705 203.965 69.7396C207.42 71.7346 209.701 73.7841 210.808 75.8883C211.888 77.9768 212.077 80.0497 211.375 82.1071C210.706 84.0392 209.497 85.8863 207.747 87.6484C207.597 87.8001 207.638 87.9916 207.852 88.1152C208.101 88.2594 208.503 88.2645 208.771 88.1321C211.574 86.7504 214.993 85.7941 219.029 85.2633C223.294 84.671 227.789 84.7411 232.513 85.4737C237.237 86.2062 241.746 87.8116 246.038 90.2898C250.276 92.7368 253.084 95.5111 254.461 98.6127C255.837 101.683 255.446 104.98 253.286 108.502C251.1 112.009 246.794 115.617 240.369 119.327L214.283 134.387ZM204.661 120.968C207.81 122.786 212.916 122.786 216.064 120.968L228.423 113.832C234.416 110.372 237.548 107.224 237.818 104.387C238.088 101.551 236.481 99.127 232.999 97.1164C230.38 95.6046 227.316 94.5993 223.807 94.1005C220.297 93.6018 216.666 93.6875 212.914 94.3577C209.189 95.0123 205.652 96.306 202.305 98.2386L189.501 105.631C186.352 107.449 186.352 110.397 189.501 112.215L204.661 120.968ZM168.339 99.9967C171.487 101.815 176.593 101.815 179.742 99.9967L190.804 93.6096C193.612 91.9886 195.596 90.2196 196.757 88.3025C197.945 86.3699 198.228 84.4606 197.607 82.5747C196.986 80.6576 195.34 78.9275 192.667 77.3845C189.239 75.4051 185.162 74.4388 180.438 74.4855C175.714 74.5323 170.868 75.9896 165.901 78.8574L154.514 85.4316C151.365 87.2496 151.365 90.1971 154.514 92.0151L168.339 99.9967Z" fill="#EEEEEE"/>
</svg>
